# xmcd
#
# Track frame offsets: 
#        150
#        1408
#        27462
#        51451
#        70563
#        93530
#        100125
#        111217
#        129611
#        152845
#        173276
#
# Disc length: 2628 seconds
#
# Revision: 0
# Processed by: cddbd v1.5.2PL0 Copyright (c) Steve Scherf et al.
# Submitted via: ExactAudioCopy v0.95b4
#
DISCID=880a420b
DTITLE=Eric Johnson - 1989-08-08 - Parthenon Club - College Station, T
DTITLE=X - Disc 1
DYEAR=1989
DGENRE=Rock
TTITLE0=Introduction
TTITLE1=Friends
TTITLE2=Soulful Terrain
TTITLE3=Forty Mile Town
TTITLE4=Virginia
TTITLE5=CW
TTITLE6=Steve's Boogie
TTITLE7=Love Or Confusion
TTITLE8=Tears Of A Clown
TTITLE9=East Wes
TTITLE10=Desert Rose
EXTD=
EXTT0=
EXTT1=
EXTT2=
EXTT3=
EXTT4=
EXTT5=
EXTT6=
EXTT7=
EXTT8=
EXTT9=
EXTT10=
PLAYORDER=
